<?xml version="1.0" standalone="no"?>
<!DOCTYPE svg PUBLIC "-//W3C//DTD SVG 20010904//EN"
 "http://www.w3.org/TR/2001/REC-SVG-20010904/DTD/svg10.dtd">
<svg version="1.0" xmlns="http://www.w3.org/2000/svg"
 width="500.000000pt" height="500.000000pt" viewBox="0 0 500.000000 500.000000"
 preserveAspectRatio="xMidYMid meet">
<metadata>
Created by potrace 1.14, written by Peter Selinger 2001-2017
</metadata>
<g transform="translate(0.000000,500.000000) scale(0.100000,-0.100000)"
fill="#000000" stroke="none">
<path d="M2154 4654 c-37 -15 -63 -52 -66 -91 -2 -33 19 -76 33 -68 5 4 9 1 9
-4 0 -6 6 -10 13 -8 15 3 17 -30 2 -63 -6 -14 -11 -32 -10 -40 0 -8 -4 -28
-10 -45 -6 -16 -10 -41 -10 -55 1 -27 -19 -55 -33 -46 -5 3 -21 -2 -37 -10
-15 -8 -30 -12 -33 -9 -8 8 -51 -44 -58 -70 -3 -13 -4 -31 -2 -41 5 -25 56
-52 104 -55 l41 -3 2 -55 c2 -96 21 -263 31 -291 1 -3 2 -8 1 -12 0 -4 4 -19
9 -33 12 -31 3 -55 -20 -55 -10 0 -20 -3 -22 -7 -1 -5 -16 -16 -33 -25 -26
-15 -30 -22 -30 -60 0 -42 -2 -44 -60 -83 -33 -21 -63 -38 -67 -37 -5 1 -8 -4
-8 -11 0 -7 -13 -20 -28 -29 -43 -26 -139 -125 -198 -204 -54 -73 -129 -204
-116 -204 4 0 1 -4 -6 -9 -7 -4 -15 -17 -17 -27 -2 -10 -4 -20 -5 -21 -2 -2
-3 -6 -4 -10 -4 -19 -23 -41 -51 -58 -42 -26 -78 -64 -94 -100 -7 -16 -17 -38
-22 -47 -5 -10 -6 -18 -2 -18 5 0 9 -23 10 -51 2 -40 9 -60 31 -88 33 -42 46
-71 30 -71 -7 0 -7 -4 1 -13 6 -8 8 -17 4 -21 -11 -11 -10 -176 0 -176 5 0 4
-7 -3 -15 -7 -8 -9 -15 -4 -15 5 0 10 -24 11 -53 2 -60 11 -115 24 -138 4 -9
6 -19 3 -22 -3 -2 2 -22 11 -43 9 -22 16 -41 17 -44 2 -17 58 -142 67 -150 4
-3 20 -25 36 -50 51 -76 127 -143 208 -183 42 -20 77 -41 78 -45 7 -60 10
-147 14 -412 6 -400 7 -430 17 -430 4 0 7 -3 7 -7 -1 -5 -1 -14 0 -21 1 -19
103 -119 121 -119 8 -1 36 -8 61 -16 52 -16 243 -21 270 -6 16 8 16 7 3 -21
-9 -16 -13 -34 -9 -39 5 -8 -58 -49 -75 -49 -17 0 -97 -26 -107 -34 -7 -6 -13
-7 -13 -2 0 5 -4 5 -8 -1 -4 -5 -16 -15 -26 -21 -23 -12 -98 -101 -76 -90 11
6 11 4 -1 -6 -9 -7 -16 -15 -17 -18 -2 -16 -15 -67 -19 -80 -4 -8 -7 -34 -8
-57 l-3 -43 688 0 c379 0 695 3 704 6 9 3 13 11 9 18 -4 6 -8 16 -10 21 -1 6
-5 21 -8 35 -4 14 -7 32 -8 40 -1 8 -4 17 -7 20 -3 3 -16 26 -29 53 -13 26
-28 47 -32 47 -5 0 -9 7 -9 15 0 8 -5 15 -10 15 -6 0 -22 12 -35 26 -14 15
-25 23 -25 18 0 -5 -5 -1 -11 8 -5 10 -16 15 -24 12 -8 -4 -15 -2 -15 4 0 5
-17 12 -37 16 -55 8 -84 14 -118 22 -16 3 -38 6 -47 6 -10 0 -18 3 -18 8 0 5
-9 7 -20 5 -18 -3 -25 5 -21 27 0 5 -2 8 -7 8 -4 0 -7 15 -7 32 0 19 -5 34
-12 34 -7 1 -18 2 -23 3 -6 0 -8 12 -4 27 5 21 4 25 -7 20 -8 -4 -5 0 5 8 11
9 14 16 8 16 -9 0 -10 5 -2 19 7 14 7 22 0 26 -8 5 -7 11 1 21 9 11 9 17 -1
29 -9 11 -9 15 -1 15 9 0 9 5 0 21 -8 16 -8 20 1 14 9 -6 9 -3 1 13 -8 15 -8
22 2 25 9 4 9 6 0 6 -7 1 -10 8 -6 18 5 12 3 14 -8 9 -8 -4 -5 0 5 8 11 9 15
16 10 16 -10 0 -15 34 -16 123 -1 20 -6 37 -12 37 -6 0 -6 4 2 12 8 8 8 17 1
31 -6 10 -9 28 -6 38 3 10 2 21 -1 23 -4 2 -7 25 -6 50 0 25 -3 46 -7 46 -4 0
-6 18 -5 40 0 22 -3 40 -8 40 -4 0 -6 7 -3 15 4 8 2 17 -3 20 -4 3 -7 13 -5
23 1 9 -3 23 -9 31 -9 12 -8 13 4 6 13 -8 13 -7 1 8 -7 9 -10 17 -6 17 4 0 2
7 -5 15 -7 9 -10 18 -7 22 4 3 2 11 -3 18 -10 13 43 105 61 105 15 0 103 43
111 54 4 6 8 8 8 4 0 -7 97 51 125 74 5 5 20 16 31 26 81 65 115 95 175 156
38 39 71 78 75 88 3 10 9 18 13 18 8 0 47 101 43 113 -1 4 2 7 6 7 4 0 9 16
10 36 2 20 7 44 11 53 5 9 7 24 6 34 -2 9 0 17 3 17 4 0 8 15 9 33 1 17 5 64
9 102 12 122 6 431 -10 495 -3 14 -8 41 -10 60 -2 19 -6 42 -9 50 -4 8 -8 26
-10 40 -2 14 -6 32 -10 40 -3 8 -8 27 -11 42 -3 15 -11 40 -18 55 -6 15 -12
35 -14 44 -4 17 -63 132 -92 178 -28 45 -125 136 -164 154 -20 10 -40 22 -43
27 -4 6 -11 8 -16 5 -5 -4 -9 -1 -9 4 0 6 -9 11 -19 11 -11 0 -23 5 -26 11 -4
6 -13 8 -21 5 -7 -3 -16 -1 -18 3 -3 5 -25 12 -48 16 -56 11 -62 12 -68 15 -8
3 -42 10 -80 16 -59 10 -344 11 -357 1 -8 -6 -13 -6 -13 0 0 6 -12 9 -26 7
-21 -2 -28 4 -43 39 -10 23 -22 56 -26 72 -5 17 -9 32 -10 35 -1 3 -5 21 -9
40 -5 19 -11 39 -14 45 -5 9 -9 25 -14 63 -1 6 -4 12 -7 12 -3 0 -7 10 -7 23
-1 12 -5 38 -9 58 -7 36 -7 37 40 55 80 30 104 101 51 146 -12 9 -29 17 -38
18 -10 0 -18 5 -18 10 0 6 -6 10 -12 9 -38 -5 -60 2 -54 16 3 8 1 15 -5 15 -6
0 -7 5 -3 12 12 18 11 58 -1 58 -5 0 -3 5 5 10 11 7 11 10 2 10 -10 0 -10 5
-2 20 6 11 9 24 7 28 -9 14 13 52 30 52 43 1 85 68 61 98 -9 11 -9 13 -1 9 23
-14 -19 54 -43 69 -31 21 -82 24 -120 8z m121 -437 c31 -7 72 -30 82 -46 10
-15 7 -24 -17 -52 -16 -19 -29 -31 -30 -27 0 4 -12 1 -26 -7 -37 -19 -49 -3
-52 68 -1 32 -4 63 -7 67 -3 5 5 7 17 4 13 -3 28 -6 33 -7z m-174 -7 c2 -18 1
-70 -1 -77 -1 -5 -1 -20 0 -35 1 -26 -1 -28 -37 -28 -74 0 -117 40 -93 85 20
38 128 84 131 55z"/>
</g>
</svg>
